<?xml version="1.0" encoding="utf-8"?>
<!-- Generator: Adobe Illustrator 19.0.1, SVG Export Plug-In . SVG Version: 6.00 Build 0)  -->
<svg version="1.1" id="Layer_1" xmlns="http://www.w3.org/2000/svg" xmlns:xlink="http://www.w3.org/1999/xlink" x="0px" y="0px"
	 viewBox="206.5 98.7 300 300" style="enable-background:new 206.5 98.7 300 300;" xml:space="preserve">
<style type="text/css">
	.st0{fill:#DEF2FF;}
	.st1{fill:#95BF47;}
	.st2{fill:#5E8E3E;}
	.st3{fill:#FFFFFF;}
</style>
<path class="st0" d="M356.5,390.6L356.5,390.6c-78.4,0-142-63.6-142-142v0c0-78.4,63.6-142,142-142h0c78.4,0,142,63.6,142,142v0
	C498.5,327.1,434.9,390.6,356.5,390.6z"/>
<g>
	<path class="st1" d="M412.5,196.9c-0.1-0.9-0.9-1.3-1.5-1.4c-0.6-0.1-13.7-1-13.7-1s-9.1-9-10-10c-1-1-2.9-0.7-3.7-0.5
		c-0.1,0-2,0.6-5.1,1.6c-2.9-8.7-8.3-16.7-17.7-16.7H360c-2.7-3.5-6-5.1-8.8-5.1c-21.9,0.1-32.3,27.4-35.6,41.3
		c-8.5,2.6-14.5,4.5-15.3,4.7c-4.7,1.5-4.9,1.6-5.5,6.1c-0.5,3.5-12.9,99.5-12.9,99.5l96.7,18.1l52.4-11.3
		C431,322.1,412.7,197.8,412.5,196.9z M373.3,187.3c-2.4,0.8-5.2,1.6-8.2,2.5V188c0-5.4-0.8-9.8-2-13.2
		C368,175.5,371.3,181,373.3,187.3z M357.1,175.9c1.3,3.4,2.2,8.2,2.2,14.7v0.9c-5.3,1.6-11.1,3.4-16.9,5.2
		C345.8,184.3,351.8,178.2,357.1,175.9z M350.6,169.8c0.9,0,1.9,0.3,2.8,0.9c-7,3.3-14.5,11.6-17.7,28.2c-4.6,1.4-9.2,2.8-13.4,4.1
		C326.1,190.4,335,169.8,350.6,169.8z"/>
	<path class="st2" d="M411,195.5c-0.6-0.1-13.7-1-13.7-1s-9.1-9-10-10c-0.4-0.4-0.9-0.6-1.4-0.6l-7.3,149.6l52.4-11.3
		c0,0-18.4-124.4-18.5-125.2C412.5,196.1,411.7,195.6,411,195.5z"/>
	<path class="st3" d="M360.9,224.5l-6.5,19.2c0,0-5.7-3-12.6-3c-10.2,0-10.7,6.4-10.7,8c0,8.8,22.9,12.1,22.9,32.7
		c0,16.2-10.3,26.6-24.1,26.6c-16.6,0-25.1-10.3-25.1-10.3l4.4-14.7c0,0,8.7,7.5,16.1,7.5c4.8,0,6.8-3.8,6.8-6.6
		c0-11.5-18.8-12-18.8-30.8c0-15.8,11.4-31.2,34.3-31.2C356.5,222,360.9,224.5,360.9,224.5z"/>
</g>
</svg>
